<?xml version="1.0" encoding="UTF-8" standalone="no"?>
<svg
   width="512"
   height="512"
   viewBox="0 0 256 256"
   preserveAspectRatio="xMidYMid"
   fill="#00979c"
   version="1.1"
   id="svg24978"
   sodipodi:docname="arduino_logo.svg"
   inkscape:version="1.2.2 (732a01da63, 2022-12-09)"
   xmlns:inkscape="http://www.inkscape.org/namespaces/inkscape"
   xmlns:sodipodi="http://sodipodi.sourceforge.net/DTD/sodipodi-0.dtd"
   xmlns="http://www.w3.org/2000/svg"
   xmlns:svg="http://www.w3.org/2000/svg">
  <defs
     id="defs24982" />
  <sodipodi:namedview
     id="namedview24980"
     pagecolor="#ffffff"
     bordercolor="#000000"
     borderopacity="0.25"
     inkscape:showpageshadow="2"
     inkscape:pageopacity="0.0"
     inkscape:pagecheckerboard="0"
     inkscape:deskcolor="#d1d1d1"
     showgrid="false"
     inkscape:zoom="1.1103786"
     inkscape:cx="172.4637"
     inkscape:cy="247.21297"
     inkscape:window-width="1920"
     inkscape:window-height="991"
     inkscape:window-x="-9"
     inkscape:window-y="-9"
     inkscape:window-maximized="1"
     inkscape:current-layer="svg24978" />
  <path
     d="m 189.57238,188.13749 c -16.21516,0 -30.1456,-5.55314 -42.28317,-16.65941 -7.5364,-6.90176 -13.74798,-15.36632 -19.46771,-24.16408 -5.7118,8.72636 -11.93131,17.25439 -19.46771,24.16408 C 95.240457,183.49666 80.215256,188.907 62.342088,188.03436 28.475885,187.8995 0.90059371,161.10958 0.90059371,128.19535 c 0,-33.001503 27.72601929,-59.846954 61.87781229,-59.846954 a 67.510279,67.510279 0 0 1 47.994964,18.8648 c 6.5527,6.108451 12.08997,13.168864 17.13539,20.570404 5.04543,-7.40154 10.5827,-14.469886 17.1354,-20.570404 a 67.510279,67.510279 0 0 1 47.99497,-18.8648 c 34.08039,0 61.87781,26.845451 61.87781,59.846954 0,32.9063 -27.57529,59.70415 -61.52082,59.84694 a 74.491365,74.491365 0 0 1 -3.66508,0.0873 z M 140.2288,127.40204 c 6.76689,10.97141 13.32752,21.18125 21.32404,28.51139 9.02782,8.27418 18.53955,11.67745 30.83578,11.10627 l 0.55531,-0.0159 c 22.42674,0 40.6807,-17.45272 40.6807,-38.7133 0,-21.26058 -18.24603,-38.713294 -40.6807,-38.713294 a 46.64635,46.64635 0 0 0 -33.60441,13.208534 c -7.23494,6.72723 -13.20853,15.35046 -19.10279,24.71939 z M 62.778406,89.474116 c -22.426741,0 -40.680695,17.452714 -40.680695,38.713294 0,21.26058 18.246021,38.7133 40.680695,38.7133 l 0.555313,0.0159 c 12.296232,0.65048 21.815895,-2.7528 30.835776,-11.10631 7.996515,-7.33014 14.565085,-17.45271 21.324045,-28.51139 -5.90219,-9.361 -11.87578,-17.99216 -19.10279,-24.71939 C 86.712426,93.575504 76.026604,89.370986 62.778406,89.370986 Z M 195.75223,120.52408 v -11.45532 h -11.91544 v 11.45532 h -11.45533 v 11.86785 h 11.45533 v 11.54259 h 11.92337 v -11.54259 h 11.45533 V 120.52408 H 195.76016 M 45.547815,120.30989 h 37.650268 v 12.23277 H 45.547815 Z"
     id="path24976"
     style="stroke-width:7.93305" />
</svg>
