<?xml version="1.0" encoding="UTF-8" standalone="no"?>
<!-- Generator: Adobe Illustrator 26.4.1, SVG Export Plug-In . SVG Version: 6.00 Build 0)  -->

<svg
   version="1.0"
   id="katman_1"
   x="0px"
   y="0px"
   viewBox="0 0 511.99998 511.99999"
   xml:space="preserve"
   sodipodi:docname="java_logo.svg"
   width="512"
   height="512"
   inkscape:version="1.2.2 (732a01da63, 2022-12-09)"
   xmlns:inkscape="http://www.inkscape.org/namespaces/inkscape"
   xmlns:sodipodi="http://sodipodi.sourceforge.net/DTD/sodipodi-0.dtd"
   xmlns:xlink="http://www.w3.org/1999/xlink"
   xmlns="http://www.w3.org/2000/svg"
   xmlns:svg="http://www.w3.org/2000/svg"><defs
   id="defs33865" /><sodipodi:namedview
   id="namedview33863"
   pagecolor="#ffffff"
   bordercolor="#000000"
   borderopacity="0.25"
   inkscape:showpageshadow="2"
   inkscape:pageopacity="0.0"
   inkscape:pagecheckerboard="0"
   inkscape:deskcolor="#d1d1d1"
   showgrid="false"
   inkscape:zoom="0.47749705"
   inkscape:cx="798.95781"
   inkscape:cy="417.80363"
   inkscape:window-width="1920"
   inkscape:window-height="991"
   inkscape:window-x="-9"
   inkscape:window-y="-9"
   inkscape:window-maximized="1"
   inkscape:current-layer="g33860" />
<style
   type="text/css"
   id="style33840">
	.st0{clip-path:url(#SVGID_00000141429680582106682160000018105045912794111919_);}
	.st1{fill:#5582A1;}
	.st2{fill:#F49734;}
</style>
<g
   id="g33860">
	<defs
   id="defs33843">
		<rect
   id="SVGID_1_"
   x="124.12"
   y="110.1"
   width="934.47998"
   height="611.52002" />
	</defs>
	<clipPath
   id="SVGID_00000150785495286499714270000009982772242062153606_">
		<use
   xlink:href="#SVGID_1_"
   style="overflow:visible"
   id="use33845" />
	</clipPath>
	<g
   clip-path="url(#SVGID_00000150785495286499714270000009982772242062153606_)"
   id="g33858"
   transform="matrix(1.2877775,0,0,1.2877775,-94.649309,-138.49125)">
		<path
   class="st1"
   d="m 217.46291,413.99348 c 0,0 -14.99646,8.73829 10.71083,11.68104 31.12375,3.54672 47.05829,3.04556 81.36252,-3.45034 0,0 9.03386,5.65419 21.65298,10.54378 -76.98052,32.99992 -174.17477,-1.87616 -113.72633,-18.77448 z m -9.40652,-43.0104 c 0,0 -16.83407,12.45207 8.8668,15.12496 33.26977,3.45034 59.54248,3.71377 104.98804,-5.0181 0,0 6.25816,6.36097 16.16584,9.87556 -92.97288,27.17224 -196.5538,2.10747 -130.02068,-19.98242 z"
   id="path33848"
   style="stroke-width:0.642522" />
		<path
   class="st2"
   d="m 287.31144,297.98619 c 18.97366,21.82004 -4.98597,41.46835 -4.98597,41.46835 0,0 48.12487,-24.83346 26.0414,-55.95721 -20.65064,-29.01628 -36.48238,-43.40877 49.23001,-93.10782 -0.006,-0.0321 -134.54404,33.56533 -70.28544,107.59668 z"
   id="path33850"
   style="stroke-width:0.642522" />
		<path
   class="st1"
   d="m 389.05474,445.81758 c 0,0 11.1092,9.16878 -12.24646,16.2301 -44.4111,13.4544 -184.81493,17.50229 -223.83528,0.53329 -14.02624,-6.09111 12.28502,-14.55954 20.54785,-16.3329 8.63549,-1.87617 13.5572,-1.54205 13.5572,-1.54205 -15.594,-10.9807 -100.773095,21.5566 -43.27383,30.89244 156.85882,25.44386 285.91572,-11.40476 245.25052,-29.78088 z M 224.69127,326.40492 c 0,0 -71.42271,16.969 -25.3025,23.12436 19.48126,2.60864 58.30242,2.01109 94.48281,-1.03446 29.54958,-2.47371 59.2405,-7.80021 59.2405,-7.80021 0,0 -10.40885,4.4848 -17.97133,9.60569 -72.52785,19.07647 -212.6554,10.20967 -172.29219,-9.30371 34.09863,-16.46783 61.84271,-14.59167 61.84271,-14.59167 z m 128.11883,71.6219 c 73.72936,-38.28787 39.62431,-75.10436 15.83173,-70.15052 -5.82125,1.20794 -8.43631,2.27452 -8.43631,2.27452 0,0 2.17815,-3.37966 6.29029,-4.85103 47.09041,-16.53209 83.27081,48.79952 -15.19564,74.69957 0.0321,-0.0643 1.16939,-1.06659 1.50993,-1.97254 z"
   id="path33852"
   style="stroke-width:0.642522" />
		<path
   class="st2"
   d="m 308.36045,110.1 c 0,0 40.83225,40.86438 -38.72478,103.6516 -63.78956,50.40582 -14.55955,79.12012 -0.0321,111.95297 C 232.35013,292.10069 205.04296,262.51899 223.3484,235.00621 250.25721,194.57233 324.82828,174.96256 308.36045,110.1 Z"
   id="path33854"
   style="stroke-width:0.642522" />
		<path
   class="st1"
   d="m 231.91964,501.84547 c 70.75449,4.51693 179.45631,-2.51226 182.03282,-36.01334 0,0 -4.95384,12.68338 -58.46947,22.75812 -60.40989,11.37905 -134.91028,10.04261 -179.09007,2.74356 -0.0321,0.0385 9.04028,7.49823 55.52672,10.51166 z"
   id="path33856"
   sodipodi:nodetypes="ccccc"
   style="stroke-width:0.642522" />
	</g>
</g>
</svg>
