<?xml version="1.0" encoding="UTF-8" standalone="no"?>
<svg
   overflow="scroll"
   version="1.1"
   id="svg12"
   sodipodi:docname="latex_logo.svg"
   viewBox="0 0 2000 800"
   inkscape:version="1.2.2 (732a01da63, 2022-12-09)"
   width="2000"
   height="800"
   xmlns:inkscape="http://www.inkscape.org/namespaces/inkscape"
   xmlns:sodipodi="http://sodipodi.sourceforge.net/DTD/sodipodi-0.dtd"
   xmlns="http://www.w3.org/2000/svg"
   xmlns:svg="http://www.w3.org/2000/svg">
  <defs
     id="defs16" />
  <sodipodi:namedview
     id="namedview14"
     pagecolor="#cccccc"
     bordercolor="#000000"
     borderopacity="0.29411765"
     inkscape:showpageshadow="2"
     inkscape:pageopacity="0"
     inkscape:pagecheckerboard="true"
     inkscape:deskcolor="#b4b4b4"
     showgrid="false"
     inkscape:zoom="0.29458334"
     inkscape:cx="314.00283"
     inkscape:cy="242.7157"
     inkscape:window-width="1920"
     inkscape:window-height="991"
     inkscape:window-x="-9"
     inkscape:window-y="-9"
     inkscape:window-maximized="1"
     inkscape:current-layer="svg12" />
  <path
     d="m 466.03375,386.03494 h -19.2549 c -7.70194,83.71409 -18.48468,185.48418 -154.03908,185.48418 h -62.38584 c -36.19921,0 -37.7396,-5.74507 -37.7396,-32.82906 V 102.88427 c 0,-27.904687 0,-39.394864 72.39838,-39.394864 h 25.41646 V 38.86761 c -27.72704,2.462179 -97.04463,2.462179 -128.62266,2.462179 -30.03763,0 -90.112862,0 -116.299522,-2.462179 v 24.621796 h 17.7145 c 59.305062,0 60.845452,9.027997 60.845452,38.574144 v 430.88143 c 0,29.54615 -1.54039,38.57414 -60.845452,38.57414 h -17.7145 v 25.44252 H 445.23847 Z"
     id="path2"
     style="fill:#ffffff;stroke-width:79.506" />
  <path
     d="m 452.94041,38.046884 c -3.08077,-9.848717 -4.62117,-13.131625 -14.6337,-13.131625 -10.01254,0 -12.32313,3.282908 -15.4039,13.131625 L 298.90131,372.9033 c -5.39136,13.95236 -14.63372,39.39488 -62.38582,39.39488 v 20.51817 h 119.38029 v -20.51817 c -23.87606,0 -38.50978,-11.49017 -38.50978,-27.90469 0,-4.10364 0.77019,-5.74509 2.3106,-11.49019 0,0 26.18665,-70.58248 26.18665,-70.58248 h 152.49871 l 30.80782,83.71412 c 1.54039,3.28291 3.08078,7.38653 3.08078,9.84871 0,16.41453 -29.26743,16.41453 -43.90114,16.41453 v 20.51817 h 151.72851 v -20.51817 h -10.78274 c -36.19919,0 -40.05016,-5.74508 -45.44152,-22.15961 0,0 -130.93326,-352.091686 -130.93326,-352.091686 z M 422.1326,96.318456 490.68001,281.80266 H 353.5852 Z"
     id="path4"
     style="fill:#ffffff;stroke-width:79.506" />
  <path
     d="M 1069.867,43.791971 H 600.81796 c 0,0 -13.86352,183.842739 -13.86352,183.842739 h 18.48469 C 616.22187,95.497751 627.77481,68.413766 744.07433,68.413766 c 13.86352,0 33.88859,0 41.59055,1.641458 16.1741,3.282906 16.1741,12.310903 16.1741,31.187586 v 430.88146 c 0,27.9047 0,39.39485 -80.87051,39.39485 h -30.80784 v 25.44252 c 31.57803,-2.46217 109.36778,-2.46217 144.79676,-2.46217 35.429,0 114.75914,0 146.33715,2.46217 v -25.44252 h -30.80782 c -80.87053,0 -80.87053,-11.49015 -80.87053,-39.39485 V 101.24281 c 0,-16.414513 0,-27.90468 13.86354,-31.187586 8.47212,-1.641458 29.26742,-1.641458 43.90112,-1.641458 115.52935,0 127.08225,27.083985 137.86495,159.220944 h 19.2549 c 0,0 -14.6337,-183.842739 -14.6337,-183.842739 z"
     id="path6"
     style="fill:#ffffff;stroke-width:79.506" />
  <path
     d="m 1482.6918,570.69841 h -19.2549 c -19.2548,125.57115 -36.9694,185.48421 -168.6728,185.48421 h -101.6658 c -36.1992,0 -37.7396,-5.74511 -37.7396,-32.82908 V 505.04029 h 68.5474 c 74.709,0 83.1811,26.26325 83.1811,96.02501 h 19.2549 V 384.39349 h -19.2549 c 0,69.76175 -8.4721,95.20426 -83.1811,95.20426 h -68.5474 V 283.4441 c 0,-27.08394 1.5404,-32.82903 37.7396,-32.82903 h 98.585 c 117.8399,0 137.865,45.13994 150.1881,159.22093 h 19.2549 l -21.5654,-183.84274 h -431.3095 v 24.62181 h 17.7145 c 59.305,0 60.8454,9.02798 60.8454,38.57412 v 428.41927 c 0,29.54615 -1.5404,38.57416 -60.8454,38.57416 h -17.7145 v 25.4425 h 442.0922 z"
     id="path8"
     style="fill:#ffffff;stroke-width:79.506" />
  <path
     d="m 1714.5206,280.98192 105.517,-164.14529 c 16.1739,-26.263253 42.3605,-52.526497 110.9081,-53.347224 V 38.86761 h -183.3066 v 24.621796 c 30.8079,0.820727 47.7522,18.876721 47.7522,37.753404 0,8.20727 -1.5404,9.84874 -6.932,18.87671 0,0 -87.802,137.88207 -87.802,137.88207 L 1602.0721,100.4221 c -1.5404,-2.46219 -5.3913,-9.027997 -5.3913,-12.310894 0,-9.848728 16.9443,-23.801073 49.2926,-24.6218 V 38.86761 c -26.1868,2.462179 -82.4111,2.462179 -111.6785,2.462179 -23.876,0 -71.6282,-0.820725 -100.1254,-2.462179 v 24.621796 h 14.6337 c 42.3607,0 56.9945,5.745086 71.6282,28.725436 0,0 140.9458,227.341248 140.9458,227.341248 l -125.5419,197.79509 c -10.7827,16.41451 -33.8886,54.16794 -110.9082,54.16794 v 25.44252 h 183.3066 v -25.44252 c -35.429,-0.82071 -48.5223,-22.98035 -48.5223,-37.75343 0,-7.38651 2.3105,-10.66942 7.7019,-19.69741 l 108.5976,-171.53184 121.6908,195.33289 c 1.5404,3.28292 3.851,6.56584 3.851,9.028 0,9.84872 -16.9442,23.80108 -50.0626,24.62179 v 25.44252 c 26.9569,-2.46217 83.1811,-2.46217 111.6783,-2.46217 32.3481,0 67.7773,0.82073 100.1255,2.46217 v -25.44252 h -14.6337 c -40.0502,0 -56.2243,-4.10361 -72.3984,-29.54614 0,0 -161.7412,-260.99106 -161.7412,-260.99106 z"
     id="path10"
     style="fill:#ffffff;stroke-width:79.506" />
</svg>
