<?xml version="1.0" encoding="UTF-8" standalone="no"?>
<!-- Created with Inkscape (http://www.inkscape.org/) -->

<svg
   version="1.1"
   id="svg9"
   width="512"
   height="512"
   viewBox="0 0 512 512"
   sodipodi:docname="legoev3logo.svg"
   xml:space="preserve"
   inkscape:version="1.2.2 (732a01da63, 2022-12-09)"
   inkscape:export-filename="legoev3logo.svg"
   inkscape:export-xdpi="96"
   inkscape:export-ydpi="96"
   xmlns:inkscape="http://www.inkscape.org/namespaces/inkscape"
   xmlns:sodipodi="http://sodipodi.sourceforge.net/DTD/sodipodi-0.dtd"
   xmlns="http://www.w3.org/2000/svg"
   xmlns:svg="http://www.w3.org/2000/svg"><defs
     id="defs13"><inkscape:perspective
       sodipodi:type="inkscape:persp3d"
       inkscape:vp_x="0 : 362 : 1"
       inkscape:vp_y="0 : 1000 : 0"
       inkscape:vp_z="300 : 362 : 1"
       inkscape:persp3d-origin="150 : 312 : 1"
       id="perspective439" /><clipPath
       id="a"><path
         d="M 0,0 H 595.276 V 793.701 H 0 Z"
         id="path231" /></clipPath><clipPath
       id="b"><path
         d="m 42.52,674.993 h 516.607 v 60.598 H 42.52 Z"
         id="path234" /></clipPath><clipPath
       id="c"><path
         d="m 42.52,674.993 h 516.607 v 60.598 H 42.52 Z"
         id="path237" /></clipPath></defs><sodipodi:namedview
     id="namedview11"
     pagecolor="#ffffff"
     bordercolor="#000000"
     borderopacity="0.25"
     inkscape:showpageshadow="2"
     inkscape:pageopacity="0.0"
     inkscape:pagecheckerboard="0"
     inkscape:deskcolor="#d1d1d1"
     showgrid="false"
     inkscape:zoom="1.2916667"
     inkscape:cx="219.87097"
     inkscape:cy="205.93548"
     inkscape:window-width="1920"
     inkscape:window-height="991"
     inkscape:window-x="-9"
     inkscape:window-y="-9"
     inkscape:window-maximized="1"
     inkscape:current-layer="g262" /><g
     inkscape:groupmode="layer"
     inkscape:label="Image"
     id="g15"><g
       transform="matrix(2.133623,0,0,-2.133623,-568.84222,1774.8667)"
       id="g262"><rect
         style="fill:#ffffff;stroke:#00aad0;stroke-width:13.7899;stroke-miterlimit:4;stroke-dasharray:none;stroke-opacity:1"
         id="rect599"
         width="498.42331"
         height="498.42331"
         x="7.1244545"
         y="7.6718917"
         rx="51.823368"
         ry="59.715946"
         transform="matrix(0.46868636,0,0,-0.46868636,266.60859,831.85582)" /><path
         d="m 420.39849,750.52838 36.32084,-0.0258 c 6.35148,-0.005 8.31027,7.94159 5.24219,10.93441 l -42.1879,44.71086 c -5.86003,6.17416 -5.80618,6.1553 -8.31494,6.17416 h -48.59074 c -2.17644,0 -2.13899,0 -9.29083,-7.22989 L 312.42829,761.4393 c -3.03064,-2.97632 -1.62882,-10.94146 5.12517,-10.93676 l 18.7923,0.006 h 17.6526 l -0.0188,24.37852 c 0.0529,1.74909 1.47073,3.14246 3.2085,3.15307 l 0.81205,0.002 h 59.12439 v -0.002 c 1.7737,-0.009 3.21081,-1.45188 3.22487,-3.23789 h 0.007 l 0.0398,-24.27721 z m -0.0164,-9.83389 36.32319,0.0259 c 6.13852,0.0447 8.30794,-7.94159 5.24689,-10.93913 L 419.75999,685.0704 c -6.51527,-6.21655 -6.44509,-6.17887 -8.31497,-6.1718 h -48.59316 c -1.35033,-0.006 -2.3239,0.16496 -9.2932,7.22991 l -41.14179,43.65275 c -3.03065,2.97868 -1.61479,10.87314 5.11816,10.93913 l 18.79229,-0.006 h 17.65494 l -0.0234,-24.38088 c 0.0542,-1.75037 1.47411,-3.14376 3.21318,-3.15305 l 0.80973,-0.005 h 59.12905 v 0.005 c 1.77394,0.006 3.20853,1.44926 3.22958,3.23318 l 0.0398,24.28191 z"
         id="path242"
         style="stroke-width:2.34839;fill:#000000"
         sodipodi:nodetypes="cccccsccccccccccccccccccccccccccccccccc" /><g
         clip-path="url(#b)"
         transform="matrix(1.4612388,0,0,1.4212325,-328.41159,-291.33355)"
         id="g246"><path
           d="m 549.683,682.987 c 0.143,-0.002 0.249,-0.097 0.25,-0.211 l -0.003,-1.168 c 0,-0.113 -0.1,-0.203 -0.241,-0.205 h -2.81 c -0.287,0 -0.52,-0.21 -0.52,-0.441 l -0.002,-1.58 c 0,-0.23 0.246,-0.417 0.534,-0.417 l 2.805,-10e-4 c 0.254,-0.001 0.234,-0.2 0.234,-0.206 l 0.002,-1.14 c 0,-0.113 -0.093,-0.2 -0.236,-0.2 h -4.732 a 0.25,0.25 0 0 0 -0.255,0.248 v 0.058 a 0.515,0.515 0 0 1 -0.514,0.513 h -1.541 a 0.526,0.526 0 0 1 -0.524,-0.517 v -2.287 c 0,-0.231 0.234,-0.441 0.52,-0.441 h 9.377 c 0.288,0 0.52,0.187 0.52,0.417 v 9.585 c 0,0.23 -0.232,0.416 -0.52,0.416 h -9.376 c -0.287,0 -0.52,-0.186 -0.52,-0.416 v -2.315 c 0,-0.284 0.219,-0.513 0.502,-0.513 h 1.542 a 0.51,0.51 0 0 1 0.51,0.505 l 0.003,0.06 c -0.002,0.178 0.114,0.254 0.255,0.254 v 0.002 z m -9.259,2.451 -2.218,-0.004 c -0.34,0 -0.472,-0.228 -0.613,-0.514 l -2.703,-6.056 a 0.288,0.288 0 0 0 -0.253,-0.15 0.31,0.31 0 0 0 -0.277,0.184 l -2.69,6.021 c -0.14,0.286 -0.274,0.514 -0.612,0.514 h -2.247 c -0.485,0 -0.582,-0.272 -0.433,-0.576 l 4.448,-9.347 c 0.214,-0.449 0.364,-0.515 0.813,-0.513 l 1.987,-0.002 c 0.367,0 0.591,0.096 0.79,0.514 l 4.441,9.353 c 0.15,0.304 0.055,0.576 -0.433,0.576 m -13.735,-4.029 c 0.288,0 0.522,-0.187 0.522,-0.417 v -1.612 c 0,-0.23 -0.23,-0.41 -0.517,-0.41 h -7.034 c -0.142,-0.002 -0.257,-0.093 -0.257,-0.207 v -1.133 c 0,-0.114 0.115,-0.207 0.257,-0.207 h 7.034 c 0.288,0 0.52,-0.187 0.52,-0.417 l 0.002,-1.594 c 0,-0.23 -0.223,-0.415 -0.511,-0.415 h -9.375 c -0.288,0 -0.521,0.186 -0.521,0.416 v 9.585 c 0,0.23 0.233,0.416 0.52,0.416 h 9.376 c 0.288,0 0.508,-0.186 0.508,-0.416 V 683.4 c 0,-0.23 -0.21,-0.411 -0.496,-0.411 h -7.035 v -10e-4 c -0.142,-0.001 -0.28,-0.067 -0.28,-0.211 v -1.16 c 0.002,-0.115 0.126,-0.207 0.267,-0.21 z"
           fill="#dc291a"
           id="path244"
           style="fill:#ff0000" /></g><path
         d="m 289.88955,664.37798 v -45.12703 h 46.9614 v 45.12703 z"
         fill="#ffffff"
         id="path248"
         style="stroke-width:0.560733" /><g
         clip-path="url(#c)"
         transform="matrix(0.88491014,0,0,0.85036528,251.94072,39.16421)"
         id="g258"><path
           d="m 92.422,713.172 c -0.087,-1.653 -0.613,-3.713 -1.078,-5.09 -1.865,-5.545 -4.029,-8.982 -9.039,-8.982 -1.475,10e-4 -4.092,0.392 -5.057,3.017 l -0.228,0.622 -0.41,-0.52 c -1.567,-1.985 -3.895,-3.13 -6.389,-3.143 -1.91,-0.008 -3.447,0.632 -4.44,1.853 l -0.274,0.335 -0.29,-0.319 c -1.06,-1.172 -2.91,-1.844 -5.07,-1.844 -1.698,0 -3.164,0.575 -4.128,1.623 l -0.264,0.285 -0.273,-0.276 c -1.073,-1.082 -2.76,-1.627 -4.885,-1.577 -2.577,0.061 -4.145,1.499 -4.196,3.848 -0.077,3.621 3.427,11.241 4.878,13.557 0.942,1.548 2.237,2.297 3.96,2.297 1.175,0.001 1.977,-0.244 2.454,-0.749 0.433,-0.459 0.52,-0.848 0.557,-1.779 l 0.05,-1.205 0.637,1.025 c 1.538,2.479 4.088,2.82 6.614,2.821 1.756,0 3.29,-0.647 3.904,-1.646 l 0.227,-0.368 0.33,0.28 c 1.302,1.106 3.14,1.716 5.172,1.716 2.22,0 3.832,-0.552 4.794,-1.64 0.22,-0.247 0.363,-0.42 0.565,-0.843 l 0.247,-0.518 0.371,0.438 c 1.407,1.667 3.331,2.511 5.718,2.511 1.89,0 3.324,-0.502 4.264,-1.492 1.177,-1.242 1.345,-2.99 1.28,-4.237 m -49.539,22.06 v -53.069 h 53.07 l -0.002,53.069 z"
           fill="#fae116"
           id="path250" /><path
           d="m 93.916,711.137 c -0.24,-1.932 -1.545,-5.51 -2.24,-6.94 -1.86,-3.833 -4.345,-6.78 -9.134,-6.78 -2.559,0.002 -4.664,0.818 -5.895,2.385 -1.802,-1.578 -4.033,-2.406 -6.435,-2.406 -1.85,0 -3.486,0.535 -4.733,1.522 -1.376,-0.97 -3.232,-1.511 -5.29,-1.51 -1.72,0 -3.267,0.472 -4.478,1.344 -1.339,-0.89 -3.094,-1.33 -5.154,-1.282 -3.429,0.082 -5.795,2.257 -5.863,5.413 -0.09,4.193 3.442,11.869 5.106,14.527 1.246,2.046 3.147,3.148 5.476,3.148 2.53,0 3.446,-0.723 3.896,-1.643 1.951,1.657 4.538,1.752 6.38,1.752 2.032,0 3.306,-0.54 4.393,-1.403 1.498,0.899 3.216,1.366 5.264,1.366 2.617,0 4.56,-0.61 5.916,-1.95 1.584,1.316 3.564,1.917 5.782,1.917 2.932,0 4.86,-1.058 5.992,-2.634 1.597,-2.222 1.313,-4.46 1.018,-6.826 m -51.032,24.095 v -53.07 h 53.069 l -10e-4,53.07 z"
           fill="#dc291a"
           id="path252" /><path
           d="M 95.567,734.85 95.566,682.544 H 43.26 v 52.306 h 52.306 z m -53.047,0.74 v -53.787 l 53.787,10e-4 V 735.59 H 42.519 Z"
           id="path254" /><path
           d="m 93.894,720.653 a 1.287,1.287 0 0 1 -1.288,-1.29 c 0,-0.712 0.575,-1.286 1.288,-1.287 a 1.2885,1.2885 0 1 1 0,2.577 m 0,-0.255 a 1.035003,1.035003 0 1 0 0.005,-2.07 1.035003,1.035003 0 0 0 -0.005,2.07 m 0.656,-1.707 -0.154,0.27 c -0.135,0.234 -0.173,0.271 -0.287,0.311 l -10e-4,0.007 c 0.225,0.027 0.362,0.172 0.36,0.374 0,0.211 -0.133,0.373 -0.42,0.373 h -0.665 v -1.335 h 0.275 v 0.547 h 0.05 c 0.118,0 0.167,-0.013 0.219,-0.067 0.054,-0.053 0.136,-0.167 0.182,-0.26 l 0.107,-0.22 z m -0.892,0.76 v 0.366 l 0.249,10e-4 c 0.182,0 0.275,-0.064 0.275,-0.182 0.002,-0.094 -0.06,-0.185 -0.245,-0.185 h -0.28 z m -6.424,-6.172 c -0.054,-1.374 -2.068,-6.87 -2.783,-8.082 -0.31,-0.526 -0.66,-0.961 -1.29,-0.96 -0.549,0 -0.797,0.389 -0.81,0.835 -0.04,1.24 2.236,7.457 3.014,8.467 0.346,0.535 0.731,0.62 1.174,0.614 0.645,-0.008 0.711,-0.474 0.695,-0.874 m 3.67,-2.244 c -0.458,-2.277 -1.486,-4.971 -2.603,-6.98 -1.824,-3.276 -4.035,-3.734 -5.968,-3.712 -1.931,0.023 -4.11,0.737 -4.125,3.718 -0.013,2.139 0.91,5.16 1.693,7.14 1.367,3.589 2.763,6.516 7.176,6.464 5.144,-0.062 4.226,-4.638 3.827,-6.63 m -16.34,3.193 c -0.745,0 -1.23,-0.471 -1.594,-0.98 -0.797,-1.12 -2.525,-5.61 -2.795,-7.453 -0.183,-1.263 0.36,-1.521 0.958,-1.521 0.955,0 2.028,1.012 2.394,2.682 0,0 -1.82,0.044 -1.32,1.658 0.489,1.567 1.414,1.906 2.948,1.969 3.02,0.124 2.723,-2.108 2.48,-3.297 -0.784,-3.864 -3.533,-6.967 -7.422,-6.967 -2.663,0 -4.317,1.473 -4.317,4.189 0,1.934 0.96,4.97 1.72,6.748 1.62,3.783 3.319,6.43 7.645,6.43 2.596,0 4.644,-0.932 4.343,-3.364 -0.22,-1.785 -1.112,-2.833 -2.735,-2.96 -0.454,-0.034 -2.311,0.012 -1.696,1.769 0.216,0.614 0.304,1.097 -0.61,1.097 m -13.534,-6.691 a 27.974,27.974 0 0 1 -0.79,-2.561 c 0.885,0.22 1.547,0.374 2.683,0.346 1.293,-0.031 2.12,-0.567 2.119,-1.637 0,-2.592 -2.865,-3.353 -4.853,-3.354 -2.182,0 -4.1,1.243 -4.1,3.629 0,2.799 1.517,7.042 2.94,9.868 1.749,3.47 3.535,3.933 6.61,3.933 1.353,0 2.91,-0.58 2.91,-1.854 0,-1.77 -1.498,-2.445 -2.984,-2.53 -0.635,-0.037 -1.612,-0.071 -2.196,-0.03 0,0 -0.495,-0.755 -1.021,-2.096 2.752,0.387 3.919,-0.238 3.454,-1.83 -0.627,-2.151 -2.491,-2.293 -4.772,-1.884 m -8.766,-2.487 c 2.692,0.468 3.368,-0.506 3.283,-1.407 -0.254,-2.697 -2.73,-3.3 -4.877,-3.25 -1.56,0.037 -2.961,0.75 -3,2.56 -0.068,3.166 3.16,10.49 4.68,12.918 0.702,1.152 1.558,1.722 2.922,1.722 1.293,0 1.612,-0.664 1.593,-1.46 -0.05,-2.12 -3.477,-8.564 -4.601,-11.083 m 34.617,14.222 c -2.78,0 -4.701,-1.102 -6.002,-2.641 a 3.44,3.44 0 0 1 -0.622,0.928 c -1.063,1.203 -2.775,1.765 -5.072,1.765 -2.243,0 -4.113,-0.7 -5.412,-1.804 -0.674,1.096 -2.282,1.822 -4.221,1.822 -2.532,0 -5.292,-0.36 -6.93,-2.997 -0.038,0.95 -0.124,1.453 -0.658,2.019 -0.65,0.687 -1.7,0.866 -2.723,0.866 -1.863,0 -3.266,-0.814 -4.275,-2.472 -1.464,-2.34 -5.014,-10.034 -4.934,-13.762 0.052,-2.407 1.667,-4.143 4.558,-4.211 2.258,-0.053 4.03,0.55 5.157,1.688 1.012,-1.1 2.555,-1.743 4.4,-1.744 2.056,0 4.125,0.618 5.347,1.967 1.03,-1.264 2.649,-2 4.73,-1.99 2.725,0.013 5.116,1.304 6.679,3.284 0.856,-2.334 3.03,-3.26 5.404,-3.26 5.203,0 7.488,3.577 9.392,9.234 0.428,1.274 1,3.402 1.095,5.189 0.158,2.973 -1.1,6.119 -5.913,6.119"
           id="path256" /></g><rect
         width="37.600601"
         height="36.415699"
         x="367.99826"
         y="-762.25098"
         transform="scale(1,-1)"
         rx="5.2458043"
         ry="4.6666708"
         fill="#dc291a"
         id="rect260"
         style="stroke-width:2.25304" /></g><text
       xml:space="preserve"
       style="font-size:58.882px;fill:#000000;stroke:#000000;stroke-width:3.4138;stroke-dasharray:none"
       x="170.4355"
       y="426.33679"
       id="text495"
       transform="scale(1.0047031,0.99531892)"><tspan
         sodipodi:role="line"
         id="tspan493"
         x="170.4355"
         y="426.33679"
         style="font-style:normal;font-variant:normal;font-weight:normal;font-stretch:normal;font-family:Consolas;-inkscape-font-specification:Consolas;fill:#000000;stroke-width:3.4138;stroke-dasharray:none">education</tspan></text><path
       style="fill:#000000;stroke:#0089d0;stroke-width:5.1207;stroke-miterlimit:4;stroke-dasharray:none;stroke-opacity:1"
       d="m 175.40562,360.81132 285.20446,0.52018"
       id="path3237" /><path
       style="fill:#000000;stroke:#0089d0;stroke-width:5.1207;stroke-miterlimit:4;stroke-dasharray:none;stroke-opacity:1"
       d="m 173.99536,449.19268 196.45181,0.36288"
       id="path3237-4" /><path
       style="fill:#000000;stroke:#0089d0;stroke-width:5.1207;stroke-miterlimit:4;stroke-dasharray:none;stroke-opacity:1"
       d="m 396.0071,449.57398 68.26237,0.53472"
       id="path3237-4-9" /></g></svg>
