<?xml version="1.0" encoding="UTF-8" standalone="no"?>
<svg
   viewBox="0 0 512 512"
   version="1.1"
   id="svg36"
   sodipodi:docname="marvelmind_logo.svg"
   inkscape:version="1.2.2 (732a01da63, 2022-12-09)"
   xmlns:inkscape="http://www.inkscape.org/namespaces/inkscape"
   xmlns:sodipodi="http://sodipodi.sourceforge.net/DTD/sodipodi-0.dtd"
   xmlns="http://www.w3.org/2000/svg"
   xmlns:svg="http://www.w3.org/2000/svg">
  <defs
     id="defs40">
    <inkscape:perspective
       sodipodi:type="inkscape:persp3d"
       inkscape:vp_x="0 : 450 : 1"
       inkscape:vp_y="0 : 1000 : 0"
       inkscape:vp_z="433 : 450 : 1"
       inkscape:persp3d-origin="216.5 : 429.33333 : 1"
       id="perspective936" />
  </defs>
  <sodipodi:namedview
     id="namedview38"
     pagecolor="#ffffff"
     bordercolor="#000000"
     borderopacity="0.25"
     inkscape:showpageshadow="2"
     inkscape:pageopacity="0.0"
     inkscape:pagecheckerboard="0"
     inkscape:deskcolor="#d1d1d1"
     showgrid="false"
     inkscape:zoom="0.81639723"
     inkscape:cx="328.88402"
     inkscape:cy="395.02829"
     inkscape:window-width="1920"
     inkscape:window-height="991"
     inkscape:window-x="-9"
     inkscape:window-y="-9"
     inkscape:window-maximized="1"
     inkscape:current-layer="g34" />
  <rect
     id="backgroundrect"
     width="99.050049%"
     height="99.050049%"
     x="-2.4497879"
     y="20.832199"
     fill="none"
     stroke="none"
     style="stroke-width:0.990501" />
  <g
     class="currentLayer"
     id="g34">
    <title
       id="title3">Layer 1</title>
    <path
       fill="none"
       d="M -2.4497878,20.213137 H 426.43692 V 143.03519 H -2.4497878 Z"
       id="svg_1"
       class="selected"
       style="stroke-width:0.990501" />
    <path
       fill="#30689d"
       d="m 245.89648,41.155079 c 15.0127,-15.34192 43.52365,-12.971495 54.91487,5.794374 28.4451,41.28491 53.5321,84.874387 80.85783,127.015297 -3.68732,81.58214 -7.4405,163.23013 -10.99614,244.87812 14.35425,0.32923 28.70849,0.59261 43.06274,0.92183 9.15248,-75.52438 18.3708,-151.04878 27.45743,-226.57317 -19.8194,-34.10779 -40.03385,-68.08389 -59.91909,-102.125826 -6.58451,-12.642269 -15.86869,-27.589119 -9.15248,-42.075052 7.50636,-13.564101 23.37503,-22.189816 38.78281,-21.333829 15.93452,1.514438 23.50671,17.514809 30.88137,29.498628 22.18982,40.494769 44.37964,80.989529 66.63529,121.484299 -9.94262,85.73039 -19.42433,171.52662 -29.49863,257.25702 -2.63381,14.7493 -3.02887,31.14476 -12.24719,43.58948 -10.60107,11.98382 -28.18173,10.53523 -42.66767,11.39122 -87.83743,-0.26338 -175.67487,-1.31691 -263.57814,-1.51445 -14.02501,-0.52675 -31.01307,1.25107 -40.36307,-11.65458 C 92.148056,446.03692 68.443801,411.00729 42.566657,377.68965 21.364517,351.87835 17.216273,317.63887 11.81697,285.83567 4.0472422,254.88843 55.406461,237.30779 70.616691,263.71169 c 12.971496,22.65073 9.942618,51.68844 26.074684,72.89058 20.741225,28.05004 42.667665,55.24408 63.606415,83.16243 12.51057,0 25.087,0 37.59758,0 -0.98768,-74.80009 2.0412,-149.79773 -1.3169,-224.40028 C 176.69324,161.84924 149.8284,133.07491 127.24352,101.33755 108.47765,100.74494 89.119179,103.3129 70.814227,98.440362 42.303276,86.588234 49.546243,37.072678 81.020226,35.755775 c 28.050044,-0.526761 60.116624,-8.230643 85.203634,7.703884 24.88946,23.7701 42.47012,53.993026 64.4624,80.331081 13.03733,19.6877 36.47821,36.60991 33.64687,62.68458 0.13169,77.17053 0.39508,154.34105 0.72429,231.44572 12.83981,0.32923 25.61378,0.59261 38.45357,0.92183 4.27993,-74.93178 8.55988,-149.79773 12.83981,-224.66367 C 293.04162,158.55697 268.218,123.92243 245.43557,87.970982 236.08555,74.209345 235.03204,54.389954 245.89648,41.155079 Z"
       id="svg_2"
       style="stroke-width:6.58452" />
    <path
       fill="#1f1b18"
       d="M 31.899741,131.29709 C 68.509646,113.32137 112.95513,154.21121 98.995957,192.20385 90.238547,227.29933 40.459611,239.94159 16.03106,213.2743 -9.5168592,190.2285 -0.36438299,143.14922 31.899741,131.29709 Z"
       id="svg_3"
       style="stroke-width:6.58452" />
    <path
       fill="#ffffff"
       d="M 25.315226,157.04254 C 39.93285,142.88584 61.464215,171.59432 44.542011,182.85385 28.80502,198.59084 6.8127387,168.30207 25.315226,157.04254 Z"
       id="svg_4"
       style="stroke-width:6.58452" />
  </g>
</svg>
