<?xml version="1.0" encoding="UTF-8" standalone="no"?>
<!-- Generator: Adobe Illustrator 16.0.0, SVG Export Plug-In . SVG Version: 6.00 Build 0)  -->

<svg
   version="1.1"
   id="svg2"
   x="0px"
   y="0px"
   width="512"
   height="512"
   viewBox="35.188 31.512 512.00001 511.99999"
   enable-background="new 35.188 31.512 351.46 258.785"
   xml:space="preserve"
   sodipodi:docname="nvidia_logo.svg"
   inkscape:version="1.2.2 (732a01da63, 2022-12-09)"
   xmlns:inkscape="http://www.inkscape.org/namespaces/inkscape"
   xmlns:sodipodi="http://sodipodi.sourceforge.net/DTD/sodipodi-0.dtd"
   xmlns="http://www.w3.org/2000/svg"
   xmlns:svg="http://www.w3.org/2000/svg"
   xmlns:rdf="http://www.w3.org/1999/02/22-rdf-syntax-ns#"
   xmlns:cc="http://creativecommons.org/ns#"
   xmlns:dc="http://purl.org/dc/elements/1.1/"><defs
   id="defs9" /><sodipodi:namedview
   id="namedview7"
   pagecolor="#ffffff"
   bordercolor="#000000"
   borderopacity="0.25"
   inkscape:showpageshadow="2"
   inkscape:pageopacity="0.0"
   inkscape:pagecheckerboard="0"
   inkscape:deskcolor="#d1d1d1"
   showgrid="false"
   inkscape:zoom="1.553413"
   inkscape:cx="154.49851"
   inkscape:cy="142.58925"
   inkscape:window-width="1920"
   inkscape:window-height="991"
   inkscape:window-x="-9"
   inkscape:window-y="-9"
   inkscape:window-maximized="1"
   inkscape:current-layer="svg2" />
<title
   id="title4">generated by pstoedit version:3.44 from NVBadge_2D.eps</title>


<path
   id="path21"
   fill="#77b900"
   d="m 88.311967,235.51784 c 0,0 46.230293,-68.20939 138.536803,-75.26596 V 135.5056 c -102.24119,8.21108 -190.778021,94.80455 -190.778021,94.80455 0,0 50.145817,144.96271 190.778021,158.23564 V 362.24234 C 123.64617,349.25908 88.311967,235.51784 88.311967,235.51784 Z m 138.536803,74.41345 v 24.08888 c -77.99821,-13.90565 -99.64863,-94.98533 -99.64863,-94.98533 0,0 37.45017,-41.48689 99.64863,-48.21477 v 26.43286 c -0.0472,0 -0.0802,-0.0145 -0.11895,-0.0145 -32.64511,-3.91761 -58.14737,26.57871 -58.14737,26.57871 0,0 14.29391,51.33937 58.26652,66.114 m 0,-220.068444 v 45.642764 c 3.00134,-0.23009 6.00272,-0.42524 9.02049,-0.52798 116.23723,-3.91756 191.97365,95.33254 191.97365,95.33254 0,0 -86.98584,105.77253 -177.60988,105.77253 -8.3056,0 -16.08116,-0.77036 -23.38426,-2.06457 v 28.22422 c 6.24512,0.79296 12.72031,1.25929 19.47697,1.25929 84.33167,0 145.3181,-43.06869 204.37141,-94.0424 9.79087,7.84131 49.87466,26.91769 58.1145,35.26847 -56.14852,47.00889 -187.00629,84.90276 -261.19375,84.90276 -7.15108,0 -14.01866,-0.43344 -20.76913,-1.08467 v 39.66059 h 320.5386 V 89.862837 Z m 0,100.957254 v -30.56616 c 2.97054,-0.20749 5.96369,-0.36772 9.02049,-0.46428 83.58596,-2.62542 138.42383,71.82911 138.42383,71.82911 0,0 -59.22999,82.26091 -122.73707,82.26091 -9.13965,0 -17.33431,-1.46883 -24.70931,-3.94839 v -92.67835 c 32.54035,3.93195 39.08951,18.306 58.65274,50.91825 l 43.51039,-36.68801 c 0,0 -31.76175,-41.65533 -85.30335,-41.65533 -5.81989,-0.001 -11.38913,0.40676 -16.85772,0.99225"
   style="stroke-width:2.05432" />
<metadata
   id="metadata169"><rdf:RDF><cc:Work
       rdf:about=""><dc:title>generated by pstoedit version:3.44 from NVBadge_2D.eps</dc:title></cc:Work></rdf:RDF></metadata></svg>
