<?xml version="1.0" encoding="UTF-8" standalone="no"?>
<svg
   width="512pt"
   height="512pt"
   viewBox="0 0 512 512"
   version="1.1"
   id="svg40"
   sodipodi:docname="python_logo.svg"
   inkscape:version="1.2.2 (732a01da63, 2022-12-09)"
   inkscape:export-filename="python_logo.svg"
   inkscape:export-xdpi="96"
   inkscape:export-ydpi="96"
   xmlns:inkscape="http://www.inkscape.org/namespaces/inkscape"
   xmlns:sodipodi="http://sodipodi.sourceforge.net/DTD/sodipodi-0.dtd"
   xmlns:xlink="http://www.w3.org/1999/xlink"
   xmlns="http://www.w3.org/2000/svg"
   xmlns:svg="http://www.w3.org/2000/svg">
  <sodipodi:namedview
     id="namedview42"
     pagecolor="#ffffff"
     bordercolor="#000000"
     borderopacity="0.25"
     inkscape:showpageshadow="2"
     inkscape:pageopacity="0.0"
     inkscape:pagecheckerboard="0"
     inkscape:deskcolor="#d1d1d1"
     inkscape:document-units="pt"
     showgrid="false"
     inkscape:zoom="0.87645349"
     inkscape:cx="219.06468"
     inkscape:cy="309.77114"
     inkscape:window-width="1920"
     inkscape:window-height="991"
     inkscape:window-x="-9"
     inkscape:window-y="-9"
     inkscape:window-maximized="1"
     inkscape:current-layer="svg40" />
  <defs
     id="defs31">
    <linearGradient
       id="linear0"
       gradientUnits="userSpaceOnUse"
       x1="26.648937"
       y1="20.603781"
       x2="135.66525"
       y2="114.39767"
       gradientTransform="matrix(0.562541,0,0,0.567972,-14.99112,-11.702371)">
      <stop
         offset="0"
         style="stop-color:rgb(35.294118%,62.352941%,83.137255%);stop-opacity:1;"
         id="stop2" />
      <stop
         offset="1"
         style="stop-color:rgb(18.823529%,41.176471%,59.607843%);stop-opacity:1;"
         id="stop4" />
    </linearGradient>
    <linearGradient
       id="linear1"
       gradientUnits="userSpaceOnUse"
       x1="150.96111"
       y1="192.35176"
       x2="112.03144"
       y2="137.27299"
       gradientTransform="matrix(0.562541,0,0,0.567972,-14.99112,-11.702371)">
      <stop
         offset="0"
         style="stop-color:rgb(100%,83.137255%,23.137255%);stop-opacity:1;"
         id="stop7" />
      <stop
         offset="1"
         style="stop-color:rgb(100%,90.980392%,45.098039%);stop-opacity:1;"
         id="stop9" />
    </linearGradient>
    <filter
       id="alpha"
       filterUnits="objectBoundingBox"
       x="0"
       y="0"
       width="1"
       height="1">
      <feColorMatrix
         type="matrix"
         in="SourceGraphic"
         values="0 0 0 0 1 0 0 0 0 1 0 0 0 0 1 0 0 0 1 0"
         id="feColorMatrix12" />
    </filter>
    <mask
       id="mask0">
      <g
         filter="url(#alpha)"
         id="g17">
        <rect
           x="0"
           y="0"
           width="306"
           height="344"
           style="fill:#000000;fill-opacity:0.443137;stroke:none"
           id="rect15" />
      </g>
    </mask>
    <radialGradient
       id="radial0"
       gradientUnits="userSpaceOnUse"
       cx="61.518883"
       cy="132.28575"
       fx="61.518883"
       fy="132.28575"
       r="29.036913"
       gradientTransform="matrix(1.74906e-8,-0.239947,1.054668,3.79155e-7,-83.7008,142.46201)">
      <stop
         offset="0"
         style="stop-color:rgb(72.156863%,72.156863%,72.156863%);stop-opacity:0.498039;"
         id="stop20" />
      <stop
         offset="1"
         style="stop-color:rgb(49.803922%,49.803922%,49.803922%);stop-opacity:0;"
         id="stop22" />
    </radialGradient>
    <clipPath
       id="clip1">
      <rect
         x="0"
         y="0"
         width="306"
         height="344"
         id="rect25" />
    </clipPath>
    <g
       id="surface5"
       clip-path="url(#clip1)">
      <path
         style="fill:url(#radial0);fill-rule:nonzero;stroke:none"
         d="m 91.746094,127.69922 c 0,-3.84766 -16.085938,-6.96484 -35.929688,-6.96484 -19.84375,0 -35.929687,3.11718 -35.929687,6.96484 0,3.84765 16.085937,6.96875 35.929687,6.96875 19.84375,0 35.929688,-3.1211 35.929688,-6.96875 z m 0,0"
         id="path28" />
    </g>
  </defs>
  <g
     id="surface1"
     transform="matrix(3.8019214,0,0,3.8019214,48.776744,38.509643)">
    <path
       style="fill:url(#linear0);fill-rule:nonzero;stroke:none"
       d="m 54.917969,0 c -4.582031,0.0234375 -8.960938,0.414062 -12.8125,1.09375 -11.34375,2.003906 -13.40625,6.199219 -13.40625,13.9375 V 25.25 h 26.8125 v 3.40625 h -36.875 c -7.792969,0 -14.613281,4.683594 -16.75,13.59375 -2.460938,10.214844 -2.570313,16.585938 0,27.25 1.90625,7.9375 6.457031,13.59375 14.25,13.59375 h 9.21875 v -12.25 c 0,-8.847656 7.65625,-16.65625 16.75,-16.65625 h 26.78125 c 7.457031,0 13.40625,-6.136719 13.40625,-13.625 V 15.03125 c 0,-7.265625 -6.128907,-12.722656 -13.40625,-13.9375 C 64.28125,0.328125 59.503906,-0.0195312 54.917969,0 Z m -14.5,8.21875 c 2.769531,0 5.03125,2.300781 5.03125,5.125 0,2.816406 -2.261719,5.09375 -5.03125,5.09375 -2.777344,0 -5.03125,-2.277344 -5.03125,-5.09375 0,-2.824219 2.253906,-5.125 5.03125,-5.125 z m 0,0"
       id="path33" />
    <path
       style="fill:url(#linear1);fill-rule:nonzero;stroke:none"
       d="M 85.636719,28.65625 V 40.5625 c 0,9.230469 -7.824219,17 -16.75,17 h -26.78125 c -7.335938,0 -13.40625,6.28125 -13.40625,13.625 v 25.53125 c 0,7.26563 6.320312,11.54297 13.40625,13.625 8.488281,2.49609 16.628906,2.94922 26.78125,0 6.75,-1.95312 13.40625,-5.88672 13.40625,-13.625 V 86.5 h -26.78125 v -3.40625 h 40.1875 c 7.792971,0 10.695311,-5.433594 13.406251,-13.59375 2.80078,-8.398438 2.67969,-16.476562 0,-27.25 -1.92578,-7.757812 -5.60156,-13.59375 -13.406251,-13.59375 z m -15.0625,64.65625 c 2.78125,0 5.03125,2.277344 5.03125,5.09375 0,2.82813 -2.25,5.125 -5.03125,5.125 -2.769531,0 -5.03125,-2.29687 -5.03125,-5.125 0,-2.816406 2.261719,-5.09375 5.03125,-5.09375 z m 0,0"
       id="path35" />
    <use
       xlink:href="#surface5"
       mask="url(#mask0)"
       id="use37" />
  </g>
</svg>
