<?xml version="1.0" encoding="UTF-8" standalone="no"?>
<!-- Generator: Adobe Illustrator 24.1.3, SVG Export Plug-In . SVG Version: 6.00 Build 0)  -->

<svg
   version="1.1"
   id="Layer_1"
   x="0px"
   y="0px"
   viewBox="0 0 1762.5871 512"
   enable-background="new 0 0 404.5 117.5"
   xml:space="preserve"
   sodipodi:docname="ros_logo.svg"
   width="1762.587"
   height="512"
   inkscape:version="1.2.2 (732a01da63, 2022-12-09)"
   inkscape:export-filename="ros_logo.svg"
   inkscape:export-xdpi="96"
   inkscape:export-ydpi="96"
   xmlns:inkscape="http://www.inkscape.org/namespaces/inkscape"
   xmlns:sodipodi="http://sodipodi.sourceforge.net/DTD/sodipodi-0.dtd"
   xmlns="http://www.w3.org/2000/svg"
   xmlns:svg="http://www.w3.org/2000/svg"><defs
   id="defs27" /><sodipodi:namedview
   id="namedview25"
   pagecolor="#ffffff"
   bordercolor="#000000"
   borderopacity="0.25"
   inkscape:showpageshadow="2"
   inkscape:pageopacity="0.0"
   inkscape:pagecheckerboard="0"
   inkscape:deskcolor="#d1d1d1"
   showgrid="false"
   inkscape:zoom="0.43695921"
   inkscape:cx="853.62659"
   inkscape:cy="451.98727"
   inkscape:window-width="1920"
   inkscape:window-height="991"
   inkscape:window-x="-9"
   inkscape:window-y="-9"
   inkscape:window-maximized="1"
   inkscape:current-layer="g39878" />
<g
   id="g39878"
   transform="matrix(2.5226559,0,0,2.6069136,227.28627,338.64359)">
	<path
   id="path39880"
   fill="#22314e"
   d="m -48.357,-97.8 c 0,10.887 -8.827,19.713 -19.714,19.713 -10.886,0 -19.712,-8.826 -19.712,-19.713 0,-10.885 8.827,-19.713 19.712,-19.713 10.887,0 19.714,8.828 19.714,19.713 z" />
	<path
   id="path39882"
   fill="#22314e"
   d="m -48.357,-30.621 c 0,10.887 -8.827,19.713 -19.714,19.713 -10.886,0 -19.712,-8.826 -19.712,-19.713 0,-10.887 8.827,-19.713 19.712,-19.713 10.887,0 19.714,8.826 19.714,19.713 z" />
	<path
   id="path39884"
   fill="#22314e"
   d="m -48.357,36.559 c 0,10.885 -8.827,19.713 -19.714,19.713 -10.886,0 -19.712,-8.828 -19.712,-19.713 0,-10.885 8.827,-19.713 19.712,-19.713 10.887,0 19.714,8.827 19.714,19.713 z" />
	<path
   id="path39886"
   fill="#22314e"
   d="m 20.432,-30.621 c 0,10.887 -8.827,19.713 -19.714,19.713 -10.886,0 -19.712,-8.826 -19.712,-19.713 0,-10.887 8.827,-19.713 19.712,-19.713 10.887,0 19.714,8.826 19.714,19.713 z" />
	<path
   id="path39888"
   fill="#22314e"
   d="m 20.432,-97.8 c 0,10.887 -8.827,19.713 -19.714,19.713 -10.886,0 -19.712,-8.826 -19.712,-19.713 0,-10.885 8.827,-19.713 19.712,-19.713 10.887,0 19.714,8.828 19.714,19.713 z" />
	<path
   id="path39890"
   fill="#22314e"
   d="m 89.22,-30.621 c 0,10.887 -8.827,19.713 -19.714,19.713 -10.886,0 -19.712,-8.826 -19.712,-19.713 0,-10.887 8.827,-19.713 19.712,-19.713 10.888,0 19.714,8.826 19.714,19.713 z" />
	<path
   id="path39892"
   fill="#22314e"
   d="m 89.22,-97.8 c 0,10.887 -8.827,19.713 -19.714,19.713 -10.886,0 -19.712,-8.826 -19.712,-19.713 0,-10.885 8.827,-19.713 19.712,-19.713 10.888,0 19.714,8.828 19.714,19.713 z" />
	<path
   id="path39894"
   fill="#22314e"
   d="m 89.22,36.559 c 0,10.885 -8.827,19.713 -19.714,19.713 -10.886,0 -19.712,-8.828 -19.712,-19.713 0,-10.885 8.827,-19.713 19.712,-19.713 10.888,0 19.714,8.827 19.714,19.713 z" />
	<path
   id="path39896"
   fill="#22314e"
   d="m 20.432,36.559 c 0,10.885 -8.827,19.713 -19.714,19.713 -10.886,0 -19.712,-8.828 -19.712,-19.713 0,-10.885 8.827,-19.713 19.712,-19.713 10.887,0 19.714,8.827 19.714,19.713 z" />
	<g
   enable-background="new    "
   id="g13">
		<path
   fill="#22314e"
   d="m 239.544,-14.812 35.324,70.651 h -29.889 l -34.336,-68.426 h -39.029 v 68.426 h -25.443 v -172.923 h 75.835 c 30.137,0 55.579,16.058 55.579,51.63 0,27.668 -14.573,44.712 -38.041,50.642 z m -17.538,-77.816 h -50.391 v 55.583 h 50.391 c 17.292,0 29.396,-8.894 29.396,-27.668 -10e-4,-18.034 -11.858,-27.915 -29.396,-27.915 z"
   id="path11" />
	</g>
	<g
   enable-background="new    "
   id="g17">
		<path
   fill="#22314e"
   d="m 382.576,58.558 c -44.71,0 -73.118,-36.809 -73.118,-89.18 0,-52.371 28.408,-89.179 73.118,-89.179 44.958,0 73.365,36.808 73.365,89.179 0,52.371 -28.407,89.18 -73.365,89.18 z m 0,-152.421 c -30.136,0 -46.686,24.456 -46.686,63.241 0,38.785 16.55,63.241 46.686,63.241 30.385,0 46.934,-24.456 46.934,-63.241 0,-38.785 -16.55,-63.241 -46.934,-63.241 z"
   id="path15" />
	</g>
	<g
   enable-background="new    "
   id="g21">
		<path
   fill="#22314e"
   d="m 545.124,58.558 c -25.198,0 -46.934,-10.87 -61.51,-27.915 l 18.528,-18.035 c 11.61,12.6 28.653,20.505 44.956,20.505 24.207,0 35.818,-8.4 35.818,-25.198 0,-13.34 -10.126,-20.01 -39.03,-28.657 -36.558,-10.868 -54.095,-20.008 -54.095,-50.887 0,-29.891 25.195,-48.172 57.06,-48.172 23.467,0 41.251,8.646 56.567,23.468 l -18.277,18.528 c -10.87,-11.116 -23.22,-16.551 -40.264,-16.551 -20.259,0 -28.904,9.881 -28.904,21.492 0,12.105 7.905,18.034 37.796,26.926 34.087,10.376 55.333,21.245 55.333,52.124 -10e-4,31.127 -19.762,52.372 -63.978,52.372 z"
   id="path19" />
	</g>
</g>
</svg>
