<?xml version="1.0" encoding="UTF-8" standalone="no"?>
<!-- Created with Inkscape (http://www.inkscape.org/) -->

<svg
   width="512mm"
   height="256mm"
   viewBox="0 0 512 256"
   version="1.1"
   id="svg5"
   xml:space="preserve"
   inkscape:version="1.2.2 (732a01da63, 2022-12-09)"
   sodipodi:docname="waspmote_logo.svg"
   xmlns:inkscape="http://www.inkscape.org/namespaces/inkscape"
   xmlns:sodipodi="http://sodipodi.sourceforge.net/DTD/sodipodi-0.dtd"
   xmlns="http://www.w3.org/2000/svg"
   xmlns:svg="http://www.w3.org/2000/svg"><sodipodi:namedview
     id="namedview7"
     pagecolor="#bfbfbf"
     bordercolor="#000000"
     borderopacity="0.30196078"
     inkscape:showpageshadow="2"
     inkscape:pageopacity="0"
     inkscape:pagecheckerboard="true"
     inkscape:deskcolor="#bfbfbf"
     inkscape:document-units="mm"
     showgrid="false"
     inkscape:zoom="0.3581229"
     inkscape:cx="914.49053"
     inkscape:cy="369.98472"
     inkscape:window-width="1920"
     inkscape:window-height="991"
     inkscape:window-x="-9"
     inkscape:window-y="-9"
     inkscape:window-maximized="1"
     inkscape:current-layer="layer1" /><defs
     id="defs2" /><g
     inkscape:label="Capa 1"
     inkscape:groupmode="layer"
     id="layer1"><path
       style="fill:none;stroke:#000000;stroke-width:5.02793;stroke-dasharray:none;stroke-opacity:1"
       d="m 29.751493,180.60414 c 0,0 56.545055,-53.30287 125.186947,-17.28071"
       id="path3838"
       sodipodi:nodetypes="cc" /><path
       style="fill:none;stroke:#000000;stroke-width:5.3038;stroke-dasharray:none;stroke-opacity:1"
       d="m 128.20174,31.747733 c 0,0 -38.40113,83.463697 29.38863,127.350697"
       id="path9066"
       sodipodi:nodetypes="cc" /><path
       style="fill:none;stroke:#000000;stroke-width:5.3038;stroke-dasharray:none;stroke-opacity:1"
       d="m 169.73767,192.0137 c 0,0 4.70218,60.34464 -63.08758,41.53593"
       id="path9070"
       sodipodi:nodetypes="cc" /><ellipse
       style="fill:none;stroke:#000000;stroke-width:5.3038;stroke-dasharray:none;stroke-opacity:1"
       id="path9124"
       cx="133.88354"
       cy="19.992279"
       rx="13.518767"
       ry="13.322843" /><ellipse
       style="fill:none;stroke:#000000;stroke-width:5.3038;stroke-dasharray:none;stroke-opacity:1"
       id="path9126"
       cx="20.639383"
       cy="188.29115"
       rx="13.518767"
       ry="13.126918" /><ellipse
       style="fill:none;stroke:#000000;stroke-width:5.3038;stroke-dasharray:none;stroke-opacity:1"
       id="path9128"
       ry="18.416872"
       rx="18.808718"
       cy="174.38052"
       cx="170.12953" /><ellipse
       style="fill:none;stroke:#000000;stroke-width:5.3038;stroke-dasharray:none;stroke-opacity:1"
       id="path9130"
       cx="97.049797"
       cy="228.84744"
       rx="10.775827"
       ry="10.971753" /><text
       xml:space="preserve"
       style="font-size:221.458px;font-family:Consolas;-inkscape-font-specification:Consolas;fill:none;stroke:#5f5f5f;stroke-width:0.358717;stroke-dasharray:none;stroke-opacity:1"
       x="344.44086"
       y="517.73712"
       id="text10705"
       transform="scale(1.1462066,0.87244307)"><tspan
         sodipodi:role="line"
         id="tspan10703"
         style="font-style:normal;font-variant:normal;font-weight:normal;font-stretch:normal;font-size:221.458px;font-family:Dubai;-inkscape-font-specification:Dubai;fill:#666666;stroke-width:0.358717;stroke-dasharray:none"
         x="344.44086"
         y="517.73712" /></text><text
       xml:space="preserve"
       style="font-style:normal;font-variant:normal;font-weight:normal;font-stretch:normal;font-size:246.944px;font-family:'Yu Gothic';-inkscape-font-specification:'Yu Gothic';fill:#666666;stroke:#5f5f5f;stroke-width:0.4;stroke-dasharray:none;stroke-opacity:1"
       x="440.918"
       y="77.317383"
       id="text13039"><tspan
         sodipodi:role="line"
         id="tspan13037"
         style="font-style:normal;font-variant:normal;font-weight:normal;font-stretch:normal;font-family:'Yu Gothic';-inkscape-font-specification:'Yu Gothic';stroke-width:0.4"
         x="440.918"
         y="77.317383" /></text><text
       xml:space="preserve"
       style="font-style:normal;font-variant:normal;font-weight:normal;font-stretch:normal;font-size:214.754px;font-family:'Yu Gothic';-inkscape-font-specification:'Yu Gothic';fill:#666666;stroke:#5f5f5f;stroke-width:0.347858;stroke-dasharray:none;stroke-opacity:1"
       x="274.35831"
       y="300.62415"
       id="text13043"
       transform="scale(1.149998,0.86956673)"><tspan
         sodipodi:role="line"
         id="tspan13041"
         style="font-style:normal;font-variant:normal;font-weight:normal;font-stretch:normal;font-family:'Tw Cen MT Condensed Extra Bold';-inkscape-font-specification:'Tw Cen MT Condensed Extra Bold, ';stroke-width:0.347858"
         x="274.35831"
         y="300.62415" /></text><path
       style="fill:none;stroke:#000000;stroke-width:5.35684;stroke-dasharray:none;stroke-opacity:1"
       d="m 161.43956,74.916648 v 33.266242 c 0,0 1.1112,13.25011 13.61215,13.25011 h 20.83491 c 0,0 11.11198,-0.84575 11.11198,-10.99476 V 75.480485 112.69358 c 0,0 2.77797,9.58519 12.22312,9.58519 4.25908,0 9.08303,-0.0573 13.09639,-0.12028 4.88688,-0.0766 8.57193,-0.16165 8.57193,-0.16165 0,0 11.38975,-0.28191 11.38975,-11.84052 V 75.762398"
       id="path16021"
       sodipodi:nodetypes="ccscsccsscsc" /><path
       style="fill:none;stroke:#000000;stroke-width:5.35684;stroke-dasharray:none;stroke-opacity:1"
       d="m 301.57236,198.13226 -0.33497,-33.26456 c 0,0 -1.24457,-13.23825 -13.74489,-13.11236 l -20.83385,0.20979 c 0,0 -11.10288,0.9576 -11.00069,11.10611 l 0.35201,34.95598 -0.37472,-37.2112 c 0,0 -2.87437,-8.17134 -12.31904,-8.07623 -4.25887,0.0429 -9.63614,0.14878 -13.64866,0.25214 -4.88587,0.12587 -8.2928,-0.0291 -8.2928,-0.0291 0,0 -11.10925,-0.71173 -10.99287,10.8463 l 0.34634,34.39217"
       id="path16021-3"
       sodipodi:nodetypes="ccscsccsscsc" /><path
       style="fill:none;stroke:#000000;stroke-width:5.3038;stroke-dasharray:none;stroke-opacity:1"
       d="m 272.80439,88.507486 c 0,0 -0.83123,-10.528983 10.80606,-10.528983 11.63732,0 29.64742,0 29.64742,0 0,0 11.36022,0.277077 11.36022,13.299773 0,13.022684 0,33.803594 0,33.803594 l 0.27707,-14.40809 c 0,0 0.27709,11.6373 -14.131,11.91438 -14.40808,0.27709 -28.53909,0.27709 -28.53909,0.27709 0,0 -9.1436,-1.93956 -9.1436,-9.97484 0,-8.03529 4.71035,-13.299784 9.69776,-13.576854 4.98741,-0.27708 29.09325,0 29.09325,0 0,0 12.74561,0.831234 12.74561,11.637304"
       id="path16813" /><path
       style="fill:none;stroke:#000000;stroke-width:5.3038;stroke-dasharray:none;stroke-opacity:1"
       d="m 395.55022,89.892876 c 0,0 2.77078,-11.08314 -9.42066,-11.08314 -12.19147,0 -33.52652,0 -33.52652,0 0,0 -9.42068,1.108311 -9.42068,10.80606 0,9.69775 9.69775,10.806074 9.69775,10.806074 h 33.52651 c 0,0 10.80607,0.55416 10.52899,13.0227 -0.27708,12.46853 -10.52899,10.52898 -10.52899,10.52898 l -34.91189,-0.27708 c 0,0 -7.48114,-0.55415 -8.31237,-10.52898"
       id="path16815" /><path
       style="fill:none;stroke:#000000;stroke-width:5.3038;stroke-dasharray:none;stroke-opacity:1"
       d="m 415.49987,126.74434 0.27709,-48.765842 h 36.85144 c 0,0 6.92698,-0.277077 6.92698,8.035285 0,8.312363 0,13.299763 0,13.299763 0,0 0.55414,3.879114 -8.03529,3.879114 -8.58942,0 -36.02022,0.27707 -36.02022,0.27707"
       id="path18995" /><path
       style="fill:none;stroke:#000000;stroke-width:5.3038;stroke-dasharray:none;stroke-opacity:1"
       d="m 332.09921,151.40432 31.86404,-0.27706 c 0,0 9.97484,0.83123 9.97484,9.69775 0,8.86651 -0.27708,26.59955 -0.27708,26.59955 0,0 0.27708,8.31236 -10.80606,8.31236 -11.08316,0 -32.69528,-0.27708 -32.69528,-0.27708 0,0 -8.58944,-1.10832 -8.58944,-9.97483 0,-8.86653 0.55415,-25.21417 0.55415,-25.21417 0,0 0.27708,-9.69775 9.97483,-8.86652 z"
       id="path18997"
       sodipodi:nodetypes="ccscscscc" /><path
       style="fill:none;stroke:#000000;stroke-width:5.3038;stroke-dasharray:none;stroke-opacity:1"
       d="m 429.35381,196.014 c 0,0 -15.5164,0.27706 -15.5164,-10.25191 v -33.8036"
       id="path21177"
       sodipodi:nodetypes="csc" /><path
       style="fill:none;stroke:#000000;stroke-width:5.3038;stroke-dasharray:none;stroke-opacity:1"
       d="m 452.6284,173.57062 54.30742,-1.10831 v -13.57685 c 0,0 0,-7.7582 -9.97483,-7.7582 -9.97483,0 -32.4182,-0.27708 -32.4182,-0.27708 0,0 -4.01018,0.43746 -6.76661,1.72791 -3.04757,1.42673 -4.8707,3.89616 -4.8707,7.96984 0,7.7582 -0.27708,13.02269 -0.27708,13.02269 z"
       id="path21179"
       sodipodi:nodetypes="cccscssc" /><path
       style="fill:none;stroke:#000000;stroke-width:5.3038;stroke-dasharray:none;stroke-opacity:1"
       d="m 452.6284,173.84771 v 14.40808 c 0,0 0.83125,8.03527 11.6373,8.03527 10.80608,0 34.63482,-0.83122 34.63482,-0.83122 0,0 8.86653,-1.66249 9.14361,-9.69775"
       id="path21181" /><path
       style="fill:none;stroke:#000000;stroke-width:5.3038;stroke-dasharray:none;stroke-opacity:1"
       d="m 387.51493,151.12726 56.52404,-0.83125"
       id="path21909" /></g></svg>
